<svg width="36" height="36" viewBox="0 0 36 36" fill="none" xmlns="http://www.w3.org/2000/svg">
<path fill-rule="evenodd" clip-rule="evenodd" d="M22.14 19.905L30.735 28.5L28.5 30.735L19.905 22.14C18.3 23.295 16.365 24 14.25 24C8.865 24 4.5 19.635 4.5 14.25C4.5 8.865 8.865 4.5 14.25 4.5C19.635 4.5 24 8.865 24 14.25C24 16.365 23.295 18.3 22.14 19.905ZM14.25 7.5C10.515 7.5 7.5 10.515 7.5 14.25C7.5 17.985 10.515 21 14.25 21C17.985 21 21 17.985 21 14.25C21 10.515 17.985 7.5 14.25 7.5Z" fill="white"/>
</svg>
